<svg width="96" height="18" viewBox="0 0 96 18" fill="none" xmlns="http://www.w3.org/2000/svg">
<path d="M6.25486 12.5733C6.23329 12.3568 6.21171 12.1534 6.18655 11.9069C6.43642 11.891 6.61707 11.8681 6.79684 11.8681C7.89517 11.8646 8.99262 11.8435 10.091 11.8716C12.4503 11.9333 14.4106 10.4595 15.1791 8.49878C16.2846 5.68322 14.7899 2.71799 12.1825 1.71608C11.4571 1.43787 10.7228 1.29964 9.95254 1.29964C7.38376 1.3014 4.81587 1.29964 2.24709 1.29964C2.10148 1.29964 1.95767 1.2926 1.81117 1.30492C1.4112 1.33662 1.35907 1.39297 1.33929 1.79003C1.3339 1.91153 1.33929 2.03303 1.33929 2.1554C1.33929 6.74148 1.33929 11.3249 1.33929 15.911C1.33929 16.1487 1.33929 16.3873 1.33929 16.6567C1.06785 16.6567 0.874611 16.6567 0.69485 16.6567C0.565422 16.1593 0.538458 1.41321 0.664291 0.706243C0.863826 0.681591 1.08403 0.632288 1.30154 0.632288C4.28378 0.627006 7.26601 0.655179 10.2491 0.621724C12.9689 0.59179 15.3409 2.45739 16.0267 4.88821C16.7035 7.28734 16.1309 9.44963 14.2317 11.184C13.3213 12.0178 12.178 12.4659 10.9682 12.5469C9.43033 12.6526 7.87271 12.5733 6.25486 12.5733Z" fill="#FAB957"/>
<path d="M2.10959 16.6553C2.10959 11.7734 2.10959 6.93373 2.10959 2.05007C2.32171 2.03246 2.50057 2.00605 2.68033 2.00605C5.24911 2.00253 7.8152 2.00077 10.384 2.00605C12.1843 2.00957 13.9424 3.35837 14.5508 4.94663C14.887 5.82441 14.9221 6.72243 14.7306 7.57379C14.372 9.16734 13.4273 10.3717 11.7807 10.9132C11.3969 11.04 10.9835 11.1315 10.5799 11.1403C9.27486 11.1685 7.9698 11.1544 6.66653 11.1509C6.4652 11.1509 6.23061 11.1861 6.18387 10.8974C6.14612 10.6596 6.28993 10.4686 6.55508 10.4439C6.77978 10.4228 7.01077 10.4351 7.23727 10.4351C8.27179 10.4334 9.30901 10.4122 10.3435 10.4387C11.9434 10.4792 13.3437 9.3804 13.7976 8.0677C14.5949 5.75838 13.7114 4.0988 11.8445 3.06079C11.4877 2.86181 11.0275 2.75968 10.6132 2.7544C8.12888 2.72447 5.64369 2.73679 3.15759 2.73503C3.0767 2.73503 2.99581 2.7544 2.84122 2.77553C2.82504 3.02557 2.79448 3.28001 2.79448 3.53181C2.79088 7.60989 2.79268 11.6862 2.79268 15.7643C2.79268 15.9069 2.79807 16.0478 2.79088 16.1913C2.77021 16.6623 2.72347 16.6958 2.10959 16.6553Z" fill="#FAB957"/>
<path d="M4.19012 16.6562C3.92947 16.6562 3.73802 16.6562 3.50253 16.6562C3.50253 12.2595 3.50253 7.90934 3.50253 3.50022C3.73263 3.47733 3.95104 3.43507 4.17034 3.43507C6.17917 3.42979 8.1898 3.48085 10.1968 3.41746C11.8776 3.36464 13.2725 4.73456 13.4514 6.23831C13.6078 7.55365 12.9022 9.18418 11.2682 9.60237C10.8341 9.7133 10.3811 9.78902 9.93258 9.80135C8.9394 9.83128 7.94353 9.81015 6.95035 9.81015C6.74542 9.81015 6.53959 9.81015 6.35624 9.81015C6.07581 9.1965 6.14232 9.07853 6.74003 9.07501C7.85814 9.06972 8.97715 9.04507 10.0953 9.08029C11.3284 9.11903 12.3054 8.35747 12.6065 7.36524C12.9031 6.38534 12.6335 5.38695 11.687 4.62011C11.2547 4.26883 10.7478 4.11563 10.1986 4.11211C8.39652 4.10331 6.59532 4.10683 4.79322 4.11211C4.61346 4.11211 4.43459 4.15437 4.19192 4.1843C4.19012 8.35923 4.19012 12.4901 4.19012 16.6562Z" fill="#FAB957"/>
<path d="M6.23095 8.26914C6.20399 7.70656 6.23994 7.64317 6.71181 7.63965C7.81015 7.62909 8.90759 7.63789 10.0059 7.63437C10.2127 7.63437 10.4239 7.63613 10.6234 7.59563C10.9254 7.534 11.1492 7.3632 11.187 7.03656C11.2103 6.83583 11.2319 6.63069 11.2211 6.42996C11.1852 5.79518 10.9137 5.54514 10.2297 5.53634C9.17364 5.52577 8.11664 5.53282 7.06055 5.53282C6.63002 5.53282 6.1986 5.53282 5.70875 5.53282C5.69077 5.84272 5.66201 6.09892 5.66201 6.35424C5.65841 9.49996 5.66021 12.6448 5.66021 15.7888C5.66021 15.9314 5.6674 16.0723 5.65841 16.2158C5.62965 16.6621 5.55775 16.7079 4.97263 16.634C4.97263 12.7179 4.97263 8.79563 4.97263 4.83905C5.17036 4.8232 5.33125 4.80031 5.49124 4.80031C7.04437 4.79855 8.59751 4.80735 10.1515 4.79679C10.9038 4.79151 11.4404 5.09789 11.8107 5.73619C12.2646 6.52064 11.933 7.81309 11.1429 8.24009C11.0225 8.30524 10.8715 8.3387 10.7322 8.3387C9.28329 8.34398 7.83442 8.34046 6.38375 8.33694C6.346 8.33606 6.30825 8.30612 6.23095 8.26914Z" fill="#FAB957"/>
<path d="M70.2257 4.18231C70.0909 4.28796 69.9669 4.38481 69.8168 4.50102C69.6964 4.40418 69.5795 4.32494 69.4824 4.22985C69.0357 3.79229 68.6259 3.31686 68.1468 2.91804C67.2507 2.1688 66.1955 1.733 65.0495 1.44774C63.802 1.13784 62.5769 1.1889 61.3743 1.52874C59.4032 2.0878 57.8178 3.19449 56.7904 4.96852C56.0345 6.27153 55.568 7.68196 55.719 9.19275C56.0174 12.1791 57.4915 14.3916 60.3326 15.6717C61.821 16.3417 63.376 16.4685 64.9408 16.1621C66.6251 15.8328 68.0596 14.9947 69.1921 13.704C69.3 13.5825 69.3845 13.4416 69.4923 13.321C69.6919 13.1027 69.8995 13.0798 70.0828 13.2541C70.2734 13.4372 70.1835 13.5728 70.0397 13.7656C69.167 14.933 68.0111 15.7333 66.6899 16.3329C65.2158 17.0029 63.6483 17.1508 62.0835 16.9096C60.4602 16.6578 58.988 15.9702 57.7674 14.8556C56.6349 13.8246 55.8521 12.5832 55.3937 11.1217C54.9614 9.74477 54.9002 8.34315 55.2355 6.98731C55.8404 4.53448 57.2767 2.64863 59.6181 1.47592C61.3671 0.601665 63.216 0.3754 65.1044 0.751337C67.2031 1.16953 68.909 2.26741 70.1709 3.98862C70.1898 4.02207 70.1916 4.06786 70.2257 4.18231Z" fill="#FAB957"/>
<path d="M69.125 12.7386C67.3498 15.2742 64.2094 16.2805 61.2595 15.3658C58.3078 14.4492 56.3817 11.9013 56.3781 8.79346C56.3763 5.68736 58.2593 3.20988 61.0366 2.29513C64.1195 1.27825 67.295 2.20884 69.1645 4.89411C69.0369 5.00504 68.9075 5.12126 68.7484 5.25948C68.6315 5.1732 68.4967 5.10981 68.4122 5.00768C67.9871 4.4856 67.5107 4.0225 66.9382 3.65713C66.1949 3.18258 65.4318 2.77759 64.5195 2.70716C64.0926 2.6737 63.6629 2.50643 63.2468 2.5434C60.8083 2.76175 58.8822 3.78655 57.7479 6.01311C57.2796 6.93139 56.9866 7.89456 57.0477 8.91672C57.1772 11.0922 58.1209 12.8205 60.0102 14.0469C61.5022 15.0145 63.1542 15.1316 64.8071 14.8507C66.1499 14.6236 67.3022 13.8831 68.1893 12.8214C68.2289 12.7738 68.2702 12.7298 68.3097 12.6822C68.6747 12.2597 68.7268 12.2632 69.125 12.7386Z" fill="#FAB957"/>
<path d="M68.0283 5.70184C67.827 5.80044 67.6643 5.87792 67.4881 5.9642C66.8652 5.14982 66.0968 4.52736 65.1144 4.20425C63.1397 3.55715 61.3547 3.89611 59.8645 5.33294C57.4008 7.70742 58.1208 11.8242 61.3457 13.2593C63.3491 14.1494 65.6258 13.6511 67.107 12.0567C67.1484 12.0126 67.1681 11.951 67.2077 11.907C67.551 11.5275 67.6346 11.5311 67.9959 11.9352C67.0315 13.711 64.4663 14.6785 62.6139 14.3519C59.4133 13.7876 57.7415 11.274 57.7145 8.83699C57.684 6.07073 59.709 3.78606 62.2732 3.30271C64.6308 2.85986 66.9488 3.83712 68.0283 5.70184Z" fill="#FAB957"/>
<path d="M66.4438 10.8574C66.9571 11.2193 66.9696 11.2721 66.6434 11.6243C64.284 14.1722 60.3418 13.1086 59.2965 10.2033C58.5928 8.24787 59.4709 5.79592 61.6397 4.87853C63.3528 4.15395 65.3437 4.52021 66.6146 5.95792C66.9858 6.37612 66.984 6.39021 66.4079 6.69659C65.4489 5.49394 64.1528 5.05197 62.6212 5.29321C61.7916 5.42351 61.1436 5.87692 60.5836 6.49233C59.4583 7.72843 59.4278 10.0378 60.7922 11.3267C61.6146 12.1023 62.5943 12.4835 63.7456 12.3726C64.8619 12.2626 65.7131 11.6824 66.4438 10.8574Z" fill="#FAB957"/>
<path d="M74.1268 0.433319C74.3515 0.433319 74.5484 0.433319 74.7317 0.433319C74.8881 0.904341 74.9115 16.3204 74.7569 16.9446C74.5681 16.9446 74.3695 16.9446 74.125 16.9446C74.1268 11.4403 74.1268 5.95704 74.1268 0.433319Z" fill="#FAB957"/>
<path d="M71.8825 16.9509C71.7046 16.9597 71.5077 16.9685 71.265 16.979C71.265 11.443 71.265 5.95801 71.265 0.434296C71.4915 0.434296 71.6884 0.434296 71.8771 0.434296C72.0317 0.909719 72.0425 16.346 71.8825 16.9509Z" fill="#FAB957"/>
<path d="M73.3216 0.46706C73.3216 5.97317 73.3216 11.4388 73.3216 16.8973C72.7437 16.9959 72.7006 16.9695 72.6664 16.4897C72.6538 16.3277 72.661 16.1657 72.661 16.0028C72.661 11.1174 72.661 6.23201 72.661 1.34483C72.661 1.18284 72.6538 1.02084 72.6682 0.857964C72.706 0.437126 72.7635 0.401909 73.3216 0.46706Z" fill="#FAB957"/>
<path d="M76.1301 16.9474C75.6079 16.958 75.5701 16.9369 75.5306 16.5486C75.5126 16.369 75.5198 16.1832 75.5198 16.0019C75.5198 11.12 75.5198 6.2363 75.5198 1.3544C75.5198 1.17304 75.5108 0.987272 75.5324 0.807667C75.5773 0.435252 75.6438 0.403556 76.1175 0.467826C76.2379 0.925641 76.2559 16.2933 76.1301 16.9474Z" fill="#FAB957"/>
<path d="M77.2145 16.8794C77.7169 15.6574 78.2041 14.4873 78.6759 13.3093C79.0561 12.3594 79.4085 11.398 79.7851 10.448C80.1635 9.49274 80.5589 8.54541 80.9409 7.59192C81.3445 6.58385 81.7382 5.57137 82.1399 4.5633C82.6531 3.27613 83.1655 1.98897 83.6841 0.705324C83.8656 0.253672 84.2566 0.421832 84.6629 0.395419C86.8892 5.88216 89.0562 11.383 91.2952 16.9472C90.9419 16.9472 90.7244 16.9472 90.4853 16.9472C88.4423 11.8417 86.4048 6.75289 84.3258 1.5558C84.1676 1.77591 84.0274 1.91237 83.96 2.07613C83.1897 3.97518 82.4249 5.87336 81.6708 7.77945C80.9364 9.63272 80.2219 11.4922 79.4894 13.3472C79.0696 14.4107 78.6346 15.4663 78.2041 16.5264C78.0027 17.0159 77.9182 17.0493 77.2145 16.8794Z" fill="#FAB957"/>
<path d="M88.618 0.514272C89.1815 0.236061 89.417 0.436797 89.5878 0.857635C90.2772 2.55331 90.9666 4.24987 91.6434 5.95083C92.3723 7.78473 93.0779 9.6248 93.8086 11.4587C94.4548 13.0769 95.1226 14.6872 95.7743 16.3036C95.848 16.485 95.8713 16.6866 95.9181 16.8732C95.288 17.0493 95.2431 17.0212 95.0489 16.5404C94.3865 14.9011 93.7079 13.2662 93.0509 11.6251C92.5808 10.4506 92.1458 9.26471 91.6757 8.09023C91.1158 6.69038 90.5271 5.29932 89.9662 3.89946C89.5752 2.93013 89.2103 1.94935 88.8301 0.976489C88.7717 0.82946 88.6998 0.690354 88.618 0.514272Z" fill="#FAB957"/>
<path d="M92.7582 16.9594C92.476 16.9594 92.2737 16.9594 92.0508 16.9594C89.8533 11.4638 87.6629 5.98587 85.4707 0.506173C86.1745 0.273743 86.2248 0.397 86.4585 0.926129C86.8423 1.7951 87.1712 2.68608 87.5263 3.56737C87.946 4.60978 88.3738 5.64603 88.7882 6.68932C89.2421 7.83034 89.6789 8.97576 90.1346 10.1168C90.7916 11.7579 91.4612 13.3928 92.1236 15.0321C92.3178 15.5155 92.5128 15.9997 92.6926 16.4883C92.7384 16.6133 92.7312 16.7595 92.7582 16.9594Z" fill="#FAB957"/>
<path d="M94.3456 16.9402C94.067 16.9402 93.8522 16.9402 93.6293 16.9402C91.4308 11.4481 89.2458 5.98958 87.0626 0.531016C87.6711 0.310912 87.8149 0.347889 88.0199 0.835638C88.3057 1.51972 88.5654 2.21437 88.8351 2.90373C89.298 4.08348 89.7545 5.26412 90.2264 6.44035C90.6084 7.39032 91.0165 8.32884 91.3949 9.27881C91.8703 10.4691 92.3197 11.6691 92.7988 12.8595C93.2725 14.0374 93.7686 15.204 94.2441 16.382C94.3088 16.5431 94.3088 16.7262 94.3456 16.9402Z" fill="#FAB957"/>
<path d="M84.2731 3.19608C84.7252 3.61603 84.815 3.97524 84.5751 4.49205C84.1409 5.4244 83.7976 6.39814 83.4138 7.35339C82.9276 8.56132 82.4386 9.76836 81.9559 10.9781C81.4032 12.3621 80.8558 13.7478 80.3093 15.1336C80.117 15.6187 79.9345 16.1082 79.7422 16.5933C79.575 17.0151 79.442 17.0538 78.8065 16.8698C80.623 12.3251 82.4395 7.78479 84.2731 3.19608Z" fill="#FAB957"/>
<path d="M80.3944 16.8457C81.9439 12.9648 83.4935 9.0866 85.0457 5.20221C85.4726 5.5262 85.6129 5.8722 85.4475 6.28688C84.9127 7.63391 84.3635 8.9739 83.8224 10.3174C83.4297 11.2868 83.036 12.2552 82.6486 13.2263C82.1965 14.362 81.7615 15.5039 81.3058 16.6397C81.1521 17.0227 80.9903 17.0561 80.3944 16.8457Z" fill="#FAB957"/>
<path d="M81.966 16.8481C83.2513 13.6267 84.5348 10.4079 85.8228 7.1759C86.2569 7.55536 86.3684 7.91281 86.1886 8.35214C85.3644 10.3815 84.533 12.4056 83.7079 14.4349C83.4293 15.1243 83.1587 15.8154 82.8927 16.5101C82.6949 17.0269 82.6069 17.0691 81.966 16.8481Z" fill="#FAB957"/>
<path d="M89.2367 14.9097C87.4643 14.9097 85.7557 14.9097 84.0371 14.9097C84.2259 14.245 84.2475 14.2221 84.8542 14.2204C86.0334 14.2168 87.2135 14.2168 88.3928 14.2204C88.9635 14.2239 88.9635 14.2327 89.2367 14.9097Z" fill="#FAB957"/>
<path d="M88.5295 13.5229C88.3803 13.5422 88.2203 13.5775 88.0613 13.5792C87.113 13.5845 86.1639 13.588 85.2156 13.5792C84.6269 13.5739 84.6018 13.5282 84.7941 12.881C84.9757 12.8687 85.1779 12.8423 85.3774 12.8423C86.2628 12.8388 87.1499 12.83 88.0361 12.8476C88.5511 12.8582 88.5996 12.9427 88.5295 13.5229Z" fill="#FAB957"/>
<path d="M88.0307 12.0863C87.1113 12.0863 86.1891 12.0863 85.2714 12.0863C85.2031 11.4462 85.248 11.3863 85.8368 11.3775C86.3733 11.3687 86.9099 11.3687 87.4456 11.3775C87.9076 11.3863 88.0343 11.5413 88.0307 12.0863Z" fill="#FAB957"/>
<path d="M26.0304 16.1627V4.63635C26.0304 4.32997 25.777 4.07905 25.4615 4.07905H22.3624C22.0496 4.07905 21.7935 3.83078 21.7935 3.52175V1.24764C21.7935 0.941255 22.0469 0.690338 22.3624 0.690338H33.4321C33.7449 0.690338 34.001 0.938614 34.001 1.24764V3.52175C34.001 3.82813 33.7476 4.07905 33.4321 4.07905H30.333C30.0202 4.07905 29.7641 4.32733 29.7641 4.63635V16.1636C29.7641 16.47 29.5106 16.7209 29.1951 16.7209H26.5994C26.2857 16.72 26.0304 16.47 26.0304 16.1627Z" fill="#FAB957"/>
<path d="M47.3479 16.718H44.5616C44.3423 16.718 44.14 16.593 44.0466 16.3976L41.7501 11.6037C41.4427 11.0129 40.9529 10.7171 40.2851 10.7171H39.7287C39.4159 10.7171 39.1598 10.9654 39.1598 11.2744V16.1616C39.1598 16.468 38.9063 16.7189 38.5908 16.7189H36.0939C35.7812 16.7189 35.525 16.4706 35.525 16.1616V1.24739C35.525 0.941011 35.7785 0.690094 36.0939 0.690094H42.2714C43.9845 0.690094 45.2734 1.11181 46.1354 1.95261C46.9991 2.7934 47.4297 4.01014 47.4297 5.60192C47.4297 6.81514 47.1348 7.84082 46.5461 8.68161C46.1695 9.21955 45.6932 9.64567 45.1188 9.95645C44.7773 10.1413 44.7225 10.6124 45.0236 10.8571C45.4038 11.1653 45.7309 11.6046 46.0042 12.1707L47.8584 15.9169C48.0426 16.2884 47.7694 16.718 47.3479 16.718ZM43.448 7.14617C43.8021 6.85916 43.9809 6.38813 43.9809 5.73751C43.9809 5.07103 43.803 4.58945 43.448 4.29363C43.0929 3.99781 42.5069 3.85078 41.6917 3.85078H39.6901C39.3773 3.85078 39.1211 4.09906 39.1211 4.40808V7.02291C39.1211 7.3293 39.3746 7.58021 39.6901 7.58021H41.6917C42.506 7.57845 43.0929 7.43583 43.448 7.14617Z" fill="#FAB957"/>
<path d="M49.7224 16.1607V1.24739C49.7224 0.941011 49.9758 0.690094 50.2913 0.690094H52.8493C53.1621 0.690094 53.4183 0.93837 53.4183 1.24739V16.1607C53.4183 16.4671 53.1648 16.718 52.8493 16.718H50.2913C49.9767 16.718 49.7224 16.468 49.7224 16.1607Z" fill="#FAB957"/>
<path d="M17.8581 0.572632H15.6928C15.4609 0.572632 15.2515 0.709977 15.1652 0.922156L15.016 1.28401C14.9333 1.48298 14.9747 1.71453 15.1257 1.86948C16.0308 2.79656 16.6698 3.97455 16.926 5.28461C16.9314 5.31102 16.9386 5.33919 16.9494 5.36561L18.4755 9.39438C18.614 9.75799 18.3389 10.1454 17.9425 10.1454H16.3211C16.1342 10.1454 15.9553 10.2317 15.8492 10.3831C14.5981 12.1835 12.4904 13.3677 10.1041 13.3677H10.0322L9.01472 15.8337C8.86372 16.2009 9.13875 16.5988 9.54232 16.5988H12.0194C12.2567 16.5988 12.4697 16.4544 12.5524 16.237L13.5402 13.6415C13.6229 13.4232 13.835 13.2796 14.0732 13.2796H19.5487C19.786 13.2796 19.999 13.424 20.0817 13.6415L21.0695 16.237C21.1522 16.4553 21.3643 16.5988 21.6025 16.5988H24.0176C24.4211 16.5988 24.6962 16.1982 24.5452 15.8337L18.3794 0.919515C18.2967 0.709977 18.0899 0.572632 17.8581 0.572632Z" fill="#FAB957"/>
<path d="M6.25486 12.5733C6.23329 12.3568 6.21171 12.1534 6.18655 11.9069C6.43642 11.891 6.61707 11.8681 6.79684 11.8681C7.89517 11.8646 8.99262 11.8435 10.091 11.8716C12.4503 11.9333 14.4106 10.4595 15.1791 8.49878C16.2846 5.68322 14.7899 2.71799 12.1825 1.71608C11.4571 1.43787 10.7228 1.29964 9.95254 1.29964C7.38376 1.3014 4.81587 1.29964 2.24709 1.29964C2.10148 1.29964 1.95767 1.2926 1.81117 1.30492C1.4112 1.33662 1.35907 1.39297 1.33929 1.79003C1.3339 1.91153 1.33929 2.03303 1.33929 2.1554C1.33929 6.74148 1.33929 11.3249 1.33929 15.911C1.33929 16.1487 1.33929 16.3873 1.33929 16.6567C1.06785 16.6567 0.874611 16.6567 0.69485 16.6567C0.565422 16.1593 0.538458 1.41321 0.664291 0.706243C0.863826 0.681591 1.08403 0.632288 1.30154 0.632288C4.28378 0.627006 7.26601 0.655179 10.2491 0.621724C12.9689 0.59179 15.3409 2.45739 16.0267 4.88821C16.7035 7.28734 16.1309 9.44963 14.2317 11.184C13.3213 12.0178 12.178 12.4659 10.9682 12.5469C9.43033 12.6526 7.87271 12.5733 6.25486 12.5733Z" fill="#FAB957"/>
<path d="M2.10959 16.6553C2.10959 11.7734 2.10959 6.93373 2.10959 2.05007C2.32171 2.03246 2.50057 2.00605 2.68033 2.00605C5.24911 2.00253 7.8152 2.00077 10.384 2.00605C12.1843 2.00957 13.9424 3.35837 14.5508 4.94663C14.887 5.82441 14.9221 6.72243 14.7306 7.57379C14.372 9.16734 13.4273 10.3717 11.7807 10.9132C11.3969 11.04 10.9835 11.1315 10.5799 11.1403C9.27486 11.1685 7.9698 11.1544 6.66653 11.1509C6.4652 11.1509 6.23061 11.1861 6.18387 10.8974C6.14612 10.6596 6.28993 10.4686 6.55508 10.4439C6.77978 10.4228 7.01077 10.4351 7.23727 10.4351C8.27179 10.4334 9.30901 10.4122 10.3435 10.4387C11.9434 10.4792 13.3437 9.3804 13.7976 8.0677C14.5949 5.75838 13.7114 4.0988 11.8445 3.06079C11.4877 2.86181 11.0275 2.75968 10.6132 2.7544C8.12888 2.72447 5.64369 2.73679 3.15759 2.73503C3.0767 2.73503 2.99581 2.7544 2.84122 2.77553C2.82504 3.02557 2.79448 3.28001 2.79448 3.53181C2.79088 7.60989 2.79268 11.6862 2.79268 15.7643C2.79268 15.9069 2.79807 16.0478 2.79088 16.1913C2.77021 16.6623 2.72347 16.6958 2.10959 16.6553Z" fill="#FAB957"/>
<path d="M4.19012 16.6562C3.92947 16.6562 3.73802 16.6562 3.50253 16.6562C3.50253 12.2595 3.50253 7.90934 3.50253 3.50022C3.73263 3.47733 3.95104 3.43507 4.17034 3.43507C6.17917 3.42979 8.1898 3.48085 10.1968 3.41746C11.8776 3.36464 13.2725 4.73456 13.4514 6.23831C13.6078 7.55365 12.9022 9.18418 11.2682 9.60237C10.8341 9.7133 10.3811 9.78902 9.93258 9.80135C8.9394 9.83128 7.94353 9.81015 6.95035 9.81015C6.74542 9.81015 6.53959 9.81015 6.35624 9.81015C6.07581 9.1965 6.14232 9.07853 6.74003 9.07501C7.85814 9.06972 8.97715 9.04507 10.0953 9.08029C11.3284 9.11903 12.3054 8.35747 12.6065 7.36524C12.9031 6.38534 12.6335 5.38695 11.687 4.62011C11.2547 4.26883 10.7478 4.11563 10.1986 4.11211C8.39652 4.10331 6.59532 4.10683 4.79322 4.11211C4.61346 4.11211 4.43459 4.15437 4.19192 4.1843C4.19012 8.35923 4.19012 12.4901 4.19012 16.6562Z" fill="#FAB957"/>
<path d="M6.23095 8.26914C6.20399 7.70656 6.23994 7.64317 6.71181 7.63965C7.81015 7.62909 8.90759 7.63789 10.0059 7.63437C10.2127 7.63437 10.4239 7.63613 10.6234 7.59563C10.9254 7.534 11.1492 7.3632 11.187 7.03656C11.2103 6.83583 11.2319 6.63069 11.2211 6.42996C11.1852 5.79518 10.9137 5.54514 10.2297 5.53634C9.17364 5.52577 8.11664 5.53282 7.06055 5.53282C6.63002 5.53282 6.1986 5.53282 5.70875 5.53282C5.69077 5.84272 5.66201 6.09892 5.66201 6.35424C5.65841 9.49996 5.66021 12.6448 5.66021 15.7888C5.66021 15.9314 5.6674 16.0723 5.65841 16.2158C5.62965 16.6621 5.55775 16.7079 4.97263 16.634C4.97263 12.7179 4.97263 8.79563 4.97263 4.83905C5.17036 4.8232 5.33125 4.80031 5.49124 4.80031C7.04437 4.79855 8.59751 4.80735 10.1515 4.79679C10.9038 4.79151 11.4404 5.09789 11.8107 5.73619C12.2646 6.52064 11.933 7.81309 11.1429 8.24009C11.0225 8.30524 10.8715 8.3387 10.7322 8.3387C9.28329 8.34398 7.83442 8.34046 6.38375 8.33694C6.346 8.33606 6.30825 8.30612 6.23095 8.26914Z" fill="#FAB957"/>
</svg>
